<?xml version="1.0" encoding="iso-8859-1"?>
<!-- Uploaded to: SVG Repo, www.svgrepo.com, Generator: SVG Repo Mixer Tools -->
<svg height="800px" width="800px" version="1.1" id="Layer_1" xmlns="http://www.w3.org/2000/svg" xmlns:xlink="http://www.w3.org/1999/xlink" 
	 viewBox="0 0 512.001 512.001" xml:space="preserve">
<g>
	<circle style="fill:#FFD41D;" cx="413.214" cy="316.207" r="88.336"/>
	<circle style="fill:#FFD41D;" cx="98.784" cy="316.207" r="88.336"/>
</g>
<path d="M413.214,217.421c-6.231,0-12.327,0.586-18.241,1.695l-34.426-114.66c-1.358-4.526-5.512-7.446-10.007-7.443v-0.001h-54.313
	c-5.77,0-10.449,4.678-10.449,10.449s4.679,10.449,10.449,10.449h46.541l13.933,46.405H177.519l-7.87-15.383h31.843
	c5.77,0,10.449-4.678,10.449-10.449c0-5.771-4.679-10.449-10.449-10.449h-80.623c-5.77,0-10.449,4.678-10.449,10.449
	c0,5.771,4.679,10.449,10.449,10.449h25.319c0.028,0.061,0.051,0.122,0.082,0.183l13.127,25.657l-25.181,49.224
	c-11.004-4.243-22.949-6.576-35.43-6.576C44.314,217.421,0,261.736,0,316.205s44.314,98.784,98.785,98.784
	c50.94,0,92.995-38.759,98.232-88.335h46.474c0.204,0,0.379-0.012,0.54-0.028c2.701-0.14,5.349-1.309,7.284-3.495l114.303-129.123
	l9.345,31.122c-35.527,14.98-60.53,50.161-60.53,91.075c0,54.469,44.314,98.784,98.784,98.784c54.471,0,98.785-44.314,98.785-98.784
	C511.999,261.736,467.685,217.421,413.214,217.421z M245.815,297.813l-57.606-112.6h157.283L245.815,297.813z M171.132,197.715
	l55.273,108.041h-29.391c-3.189-30.185-20.028-56.355-44.211-72.213L171.132,197.715z M123.858,305.756
	c-1.086-2.596-2.565-4.985-4.36-7.101l23.717-46.365c17.492,12.197,29.756,31.374,32.732,53.466H123.858z M98.784,394.091
	c-42.947,0-77.887-34.939-77.887-77.886c0-42.947,34.939-77.887,77.887-77.887c9.056,0,17.749,1.57,25.84,4.425l-23.726,46.384
	c-0.699-0.054-1.402-0.09-2.114-0.09c-14.981,0-27.168,12.188-27.168,27.168c0,14.98,12.188,27.166,27.168,27.166
	c11.279,0,20.971-6.91,25.073-16.717h52.091C170.824,364.675,138.185,394.091,98.784,394.091z M413.214,394.091
	c-42.946,0-77.886-34.939-77.886-77.886c0-31.468,18.77-58.618,45.691-70.893l14.981,49.892c-6.072,4.987-9.953,12.548-9.953,21
	c0,14.98,12.187,27.166,27.166,27.166c14.981,0,27.168-12.187,27.168-27.166c0-14.037-10.7-25.621-24.372-27.025l-14.983-49.901
	c3.973-0.627,8.04-0.96,12.187-0.96c42.947,0,77.887,34.94,77.887,77.887C491.101,359.152,456.161,394.091,413.214,394.091z"/>
<path d="M98.784,358c-13.957,0-26.942-6.93-34.733-18.536c-3.216-4.792-9.709-6.066-14.5-2.852
	c-4.791,3.217-6.068,9.708-2.852,14.499c11.681,17.399,31.152,27.786,52.085,27.786c5.77,0,10.449-4.678,10.449-10.449
	C109.233,362.678,104.555,358,98.784,358z"/>
<path d="M47.866,331.942c5.741-0.584,9.922-5.711,9.338-11.452c-0.144-1.415-0.216-2.856-0.216-4.284
	c0-5.771-4.679-10.449-10.449-10.449s-10.449,4.678-10.449,10.449c0,2.132,0.109,4.284,0.325,6.398
	c0.546,5.382,5.087,9.393,10.382,9.393C47.149,331.996,47.506,331.978,47.866,331.942z"/>
<path d="M433.274,256.791c-5.467-1.847-11.396,1.091-13.242,6.558c-1.846,5.468,1.091,11.397,6.558,13.242
	c16.999,5.739,28.42,21.658,28.42,39.614c0,5.771,4.679,10.449,10.449,10.449s10.449-4.678,10.449-10.449
	C475.909,289.276,458.776,265.399,433.274,256.791z"/>
<path d="M413.215,358c-13.957,0-26.942-6.93-34.733-18.536c-3.216-4.792-9.709-6.066-14.5-2.852
	c-4.791,3.217-6.068,9.708-2.852,14.499c11.681,17.399,31.152,27.786,52.085,27.786c5.77,0,10.449-4.678,10.449-10.449
	C423.664,362.678,418.985,358,413.215,358z"/>
<path d="M362.296,331.942c5.741-0.584,9.922-5.711,9.337-11.452c-0.144-1.415-0.216-2.856-0.216-4.284
	c0-5.771-4.679-10.449-10.449-10.449s-10.449,4.678-10.449,10.449c0,2.132,0.11,4.284,0.325,6.398
	c0.547,5.382,5.087,9.393,10.382,9.393C361.581,331.996,361.938,331.978,362.296,331.942z"/>
</svg>