<?xml version="1.0" encoding="iso-8859-1"?>
<!-- Uploaded to: SVG Repo, www.svgrepo.com, Generator: SVG Repo Mixer Tools -->
<svg height="800px" width="800px" version="1.1" id="Layer_1" xmlns="http://www.w3.org/2000/svg" xmlns:xlink="http://www.w3.org/1999/xlink" 
	 viewBox="0 0 512 512" xml:space="preserve">
<path style="fill:#F15A24;" d="M366.944,256c0,135.752-73.999,245.801-73.999,245.801S218.945,391.752,218.945,256
	s73.999-245.801,73.999-245.801S366.944,120.248,366.944,256z"/>
<g>
	<ellipse style="fill:#FBB03B;" cx="292.942" cy="256" rx="39.848" ry="56.432"/>
	<path style="fill:#FBB03B;" d="M169.024,122.39L169.024,122.39c-13.238,0-23.968-10.731-23.968-23.968V25.498h47.936v72.924
		C192.992,111.66,182.262,122.39,169.024,122.39z"/>
	<path style="fill:#FBB03B;" d="M192.992,486.502h-47.936v-72.924c0-13.238,10.731-23.968,23.968-23.968l0,0
		c13.238,0,23.968,10.731,23.968,23.968V486.502z"/>
</g>
<path d="M339.361,78.276c-18.674-44.899-37.174-72.61-37.953-73.768C299.514,1.69,296.341,0,292.945,0
	c-3.396,0-6.568,1.69-8.463,4.508c-0.778,1.158-19.28,28.869-37.953,73.768C229.292,119.718,208.746,184.191,208.746,256
	s20.546,136.282,37.781,177.724c18.674,44.899,37.175,72.61,37.953,73.768c1.895,2.818,5.068,4.508,8.463,4.508
	s6.568-1.69,8.463-4.508c0.778-1.158,19.28-28.869,37.953-73.768c17.237-41.442,37.783-105.916,37.783-177.724
	S356.597,119.718,339.361,78.276z M320.727,425.408c-10.343,24.94-20.774,44.573-27.772,56.757
	c-19.08-33.314-63.809-122.482-63.809-226.164c0-68.24,19.587-129.79,36.016-169.408c10.343-24.94,20.774-44.573,27.772-56.757
	c19.08,33.314,63.81,122.482,63.81,226.164C356.745,324.24,337.158,385.79,320.727,425.408z"/>
<path d="M329.452,210.213c-9.491-13.443-22.457-20.845-36.507-20.845c-14.05,0-27.016,7.403-36.507,20.845
	C247.707,222.577,242.9,238.838,242.9,256c0,17.162,4.808,33.423,13.537,45.787c9.491,13.443,22.457,20.845,36.507,20.845
	c14.05,0,27.016-7.403,36.507-20.845c8.731-12.364,13.537-28.625,13.537-45.787S338.182,222.577,329.452,210.213z M292.945,302.235
	c-16.07,0-29.646-21.173-29.646-46.235s13.576-46.235,29.646-46.235c16.07,0,29.646,21.173,29.646,46.235
	S309.014,302.235,292.945,302.235z"/>
<path d="M192.992,15.299h-47.936c-5.633,0-10.199,4.566-10.199,10.199v72.924c0,18.84,15.327,34.167,34.167,34.167
	s34.167-15.327,34.167-34.167V25.498C203.192,19.865,198.625,15.299,192.992,15.299z M182.793,98.422
	c0,7.592-6.177,13.769-13.769,13.769s-13.769-6.177-13.769-13.769V35.697h27.538V98.422z"/>
<path d="M179.223,380.966V196.845c0-5.633-4.566-10.199-10.199-10.199s-10.199,4.566-10.199,10.199v184.121
	c-13.874,4.348-23.968,17.322-23.968,32.612v72.924c0,5.633,4.566,10.199,10.199,10.199h47.936c5.633,0,10.199-4.566,10.199-10.199
	v-72.924C203.192,398.289,193.097,385.315,179.223,380.966z M182.793,476.303h-27.538v-62.725c0-7.592,6.177-13.769,13.769-13.769
	s13.769,6.177,13.769,13.769V476.303z"/>
<path d="M169.024,174.406c5.633,0,10.199-4.566,10.199-10.199v-6.12c0-5.633-4.566-10.199-10.199-10.199
	s-10.199,4.566-10.199,10.199v6.12C158.825,169.84,163.391,174.406,169.024,174.406z"/>
</svg>