<!DOCTYPE svg PUBLIC "-//W3C//DTD SVG 1.1//EN" "http://www.w3.org/Graphics/SVG/1.1/DTD/svg11.dtd">
<!-- Uploaded to: SVG Repo, www.svgrepo.com, Transformed by: SVG Repo Mixer Tools -->
<svg fill="#fff" height="800px" width="800px" version="1.1" id="Layer_1" xmlns="http://www.w3.org/2000/svg" xmlns:xlink="http://www.w3.org/1999/xlink" viewBox="0 0 512.008 512.008" xml:space="preserve" stroke="#fff">
<g id="SVGRepo_bgCarrier" stroke-width="0"/>
<g id="SVGRepo_tracerCarrier" stroke-linecap="round" stroke-linejoin="round"/>
<g id="SVGRepo_iconCarrier"> <g> <g> <g> <path d="M25.604,59.737c14.114,0,25.6,11.486,25.6,25.6c0,4.71,3.823,8.533,8.533,8.533s8.533-3.823,8.533-8.533 c0-14.114,11.486-25.6,25.6-25.6c4.71,0,8.533-3.823,8.533-8.533s-3.823-8.533-8.533-8.533c-14.114,0-25.6-11.486-25.6-25.6 c0-4.71-3.823-8.533-8.533-8.533s-8.533,3.823-8.533,8.533c0,14.114-11.486,25.6-25.6,25.6c-4.71,0-8.533,3.823-8.533,8.533 S20.894,59.737,25.604,59.737z M59.738,42.645c2.432,3.234,5.316,6.127,8.559,8.559c-3.243,2.432-6.127,5.325-8.559,8.559 c-2.432-3.234-5.325-6.127-8.559-8.559C54.413,48.772,57.306,45.879,59.738,42.645z"/> <circle cx="170.67" cy="110.937" r="8.533"/> <circle cx="230.403" cy="17.07" r="8.533"/> <path d="M102.403,469.337c-5.76,0-11.085,1.911-15.36,5.137c-4.83-6.426-11.861-11.093-19.968-12.877 c-3.285-10.342-12.988-17.86-24.405-17.86c-11.529,0-21.291,7.654-24.491,18.142C7.666,465.07,0.003,474.85,0.003,486.387 c0,14.123,11.486,25.617,25.6,25.617c4.71,0,8.533-3.823,8.533-8.533s-3.823-8.533-8.533-8.533c-4.702,0-8.533-3.84-8.533-8.55 c0-4.565,3.601-8.303,8.107-8.525c4.779,0.162,8.96-3.669,8.96-8.525c0-4.702,3.831-8.533,8.533-8.533 c4.702,0,8.533,3.831,8.533,8.533c0,4.71,3.823,8.533,8.533,8.533c9.412,0,17.067,7.654,17.067,17.067 c0,4.71,3.823,8.533,8.533,8.533c4.71,0,8.533-3.823,8.533-8.533c0-4.702,3.831-8.533,8.533-8.533 c4.702,0,8.533,3.831,8.533,8.533c0,4.71,3.823,8.533,8.533,8.533s8.533-3.823,8.533-8.533 C128.003,480.823,116.518,469.337,102.403,469.337z"/> <path d="M136.537,366.937c-5.76,0-11.085,1.911-15.36,5.137c-4.83-6.426-11.861-11.093-19.968-12.877 c-3.285-10.342-12.988-17.86-24.405-17.86c-14.114,0-25.591,11.477-25.6,25.591v0.009c0,4.71,3.823,8.533,8.533,8.533 s8.533-3.823,8.533-8.533c0-4.702,3.831-8.533,8.533-8.533c4.702,0,8.533,3.831,8.533,8.533c0,4.71,3.823,8.533,8.533,8.533 c9.412,0,17.067,7.654,17.067,17.067c0,4.71,3.823,8.533,8.533,8.533s8.533-3.823,8.533-8.533c0-4.702,3.831-8.533,8.533-8.533 c4.702,0,8.533,3.831,8.533,8.533c0,4.71,3.823,8.533,8.533,8.533c4.71,0,8.533-3.823,8.533-8.533 C162.137,378.423,150.651,366.937,136.537,366.937z"/> <path d="M384.003,418.137c-5.76,0-11.085,1.911-15.36,5.137c-4.83-6.426-11.861-11.093-19.968-12.877 c-3.285-10.342-12.988-17.86-24.405-17.86c-14.114,0-25.591,11.477-25.6,25.591v0.009c0,4.71,3.823,8.533,8.533,8.533 s8.533-3.823,8.533-8.533c0-4.702,3.831-8.533,8.533-8.533c4.702,0,8.533,3.831,8.533,8.533c0,4.71,3.823,8.533,8.533,8.533 c9.412,0,17.067,7.654,17.067,17.067c0,4.71,3.823,8.533,8.533,8.533s8.533-3.823,8.533-8.533c0-4.702,3.831-8.533,8.533-8.533 c4.702,0,8.533,3.831,8.533,8.533c0,4.71,3.823,8.533,8.533,8.533c4.719,0,8.533-3.823,8.533-8.533 C409.603,429.623,398.118,418.137,384.003,418.137z"/> <path d="M247.47,443.737c-5.76,0-11.085,1.911-15.36,5.137c-4.83-6.426-11.861-11.093-19.968-12.877 c-3.285-10.342-12.988-17.86-24.405-17.86c-14.114,0-25.591,11.477-25.6,25.591v0.008c0,4.71,3.823,8.533,8.533,8.533 s8.533-3.823,8.533-8.533c0-4.702,3.831-8.533,8.533-8.533c4.702,0,8.533,3.831,8.533,8.533c0,4.71,3.823,8.533,8.533,8.533 c9.412,0,17.067,7.654,17.067,17.067c0,4.71,3.823,8.533,8.533,8.533s8.533-3.823,8.533-8.533c0-4.702,3.831-8.533,8.533-8.533 c4.702,0,8.533,3.831,8.533,8.533c0,4.71,3.823,8.533,8.533,8.533c4.71,0,8.533-3.823,8.533-8.533 C273.07,455.223,261.584,443.737,247.47,443.737z"/> <path d="M507.924,462.058c-23.336-14.291-43.566-52.01-59.963-94.762c-0.184-0.911-0.52-1.786-0.988-2.594 c-26.383-69.762-42.609-151.815-45.555-167.346c-0.316-1.677-0.477-2.578-0.48-2.599c-0.269-1.476-0.926-2.811-1.848-3.923 c-0.085-0.103-0.159-0.215-0.249-0.314c-0.131-0.144-0.282-0.269-0.422-0.404c-0.144-0.138-0.279-0.285-0.432-0.413 c-0.912-0.759-1.988-1.333-3.176-1.662c-3.149-0.87-6.537,0.145-8.704,2.611c-2.149,2.463-4.081,3.892-5.776,4.695 c-2.179,1.032-3.965,1.028-5.314,0.845c-7.96-1.042-17.153-10.677-24.51-21.082c-4.093-5.791-7.62-11.82-10.045-16.741 c-0.9-1.828-2.407-3.23-4.207-4.026c-1.013-0.45-2.117-0.714-3.265-0.741c-0.799-0.009-1.582,0.09-2.332,0.286 c-2.246,0.583-4.189,2.047-5.335,4.14c-1.755,3.198-3.556,6.007-5.401,8.472c-5.598,7.469-11.637,11.59-18.276,12.494 c-0.849,0.115-1.703,0.196-2.572,0.206c-0.028,0.003-0.055,0.001-0.082,0.003h-0.188c-20.422,0-44.391-27.23-59.106-47.948 c-4.443-6.258-8.043-11.923-10.444-16.063c-1.835-3.166-5.47-4.804-9.054-4.087c-0.897,0.179-1.74,0.496-2.508,0.927 c-1.633,0.914-2.908,2.353-3.647,4.074c-0.304,0.707-0.534,1.454-0.638,2.244c-0.236,1.768-6.231,42.661-57.688,43.758 c-16.427-39.087-23.65-69.443-23.815-70.162c-0.502-2.156-1.805-3.981-3.568-5.164c-1.057-0.71-2.28-1.188-3.596-1.367 c-0.103-0.014-0.205-0.008-0.308-0.019c-3.299-0.362-6.459,1.258-8.148,4.097c-0.06,0.1-0.132,0.188-0.188,0.291 c-1.416,2.596-2.82,5.159-4.218,7.705c-0.561,1.021-1.113,2.021-1.669,3.029c-0.782,1.42-1.563,2.834-2.339,4.237 c-0.726,1.311-1.447,2.611-2.163,3.899c-0.58,1.044-1.157,2.079-1.734,3.113c-0.805,1.443-1.609,2.886-2.402,4.301 c-0.35,0.625-0.697,1.24-1.046,1.862c-1.843,3.282-3.656,6.494-5.434,9.625c-0.213,0.374-0.427,0.754-0.639,1.128 c-0.878,1.544-1.744,3.06-2.607,4.568c-0.379,0.663-0.758,1.325-1.136,1.984c-0.844,1.471-1.682,2.93-2.51,4.366 c-0.334,0.578-0.664,1.148-0.997,1.723c-1.561,2.7-3.095,5.337-4.604,7.916c-0.339,0.58-0.681,1.167-1.019,1.743 c-0.71,1.211-1.409,2.395-2.107,3.579c-0.516,0.875-1.031,1.747-1.544,2.612c-0.637,1.075-1.272,2.146-1.898,3.199 c-0.81,1.36-1.614,2.704-2.415,4.039c-0.625,1.042-1.243,2.07-1.858,3.089c-0.805,1.335-1.608,2.663-2.404,3.974 c-0.408,0.671-0.812,1.336-1.216,1.997c-1.032,1.692-2.059,3.371-3.076,5.02c-0.085,0.137-0.172,0.28-0.256,0.417 c-1.218,1.975-2.424,3.917-3.62,5.83c-0.103,0.165-0.205,0.327-0.307,0.491c-3.713,5.935-7.317,11.575-10.806,16.905 c-0.02,0.031-0.035,0.064-0.055,0.095c-31.138,47.591-43.138,55.485-44.605,56.33c-3.985,1.553-6.255,5.897-5.129,10.129 c1.203,4.54,5.837,7.245,10.436,6.059c4.26-1.131,17.587-9.08,49.841-57.465c8.74,3.981,16.418,9.949,22.458,17.5l21.248,26.547 c1.613,2.031,4.07,3.208,6.656,3.208c2.594,0,5.052-1.178,6.665-3.208l19.738-24.661c6.862-8.571,15.578-15.338,25.488-19.846 c25.165,45.467,61.601,92.251,112.304,117.725c1.229,0.614,2.534,0.905,3.823,0.905c3.123,0,6.135-1.724,7.637-4.702 c2.116-4.207,0.41-9.344-3.797-11.46c-50.414-25.324-86.236-74.876-110.287-121.273l16.216,13.84 c13.705,11.708,29.21,20.847,46.089,27.179l14.182,5.316c18.509,6.938,34.978,17.544,48.956,31.522l11.759,11.759 c1.604,1.613,3.78,2.5,6.033,2.5c0.205,0,0.41-0.009,0.606-0.017c2.466-0.179,4.736-1.417,6.221-3.396 c15.778-21.018,37.12-37.018,61.73-46.242l8.01-3.005c7.604,33.915,20.378,84.289,37.891,130.698 c-7.496,12.296-15.973,18.483-25.856,18.86c-28.006,1.186-61.995-42.155-72.917-58.889c-1.954-2.987-5.564-4.463-9.037-3.661 c-3.482,0.794-6.101,3.669-6.571,7.202c-0.23,1.715-5.862,40.226-53.12,43.554c-3.712-14.225-7.501-20.582-7.979-21.35 c-1.425-2.287-3.857-3.772-6.554-3.994c-2.688-0.256-5.342,0.853-7.117,2.893c-4.915,5.632-8.687,5.862-11.093,5.538 c-12.39-1.621-27.767-24.064-34.551-37.82c-1.408-2.859-4.292-4.693-7.475-4.762c-3.132-0.043-6.135,1.63-7.663,4.42 c-7.757,14.131-16.341,21.052-26.249,21.171c-0.094,0.008-0.179,0.008-0.273,0.008c-26.581,0-59.196-46.174-69.547-64.017 c-1.835-3.166-5.487-4.813-9.054-4.087c-3.584,0.717-6.315,3.627-6.792,7.245c-0.239,1.792-6.391,43.784-59.81,43.784 c-4.71,0-8.533,3.823-8.533,8.533c0,4.71,3.823,8.533,8.533,8.533c42.982,0,62.234-23.04,70.613-40.235 c14.848,21.538,44.1,57.31,74.598,57.31c0.154,0,0.307,0,0.452-0.009c12.57-0.145,23.62-6.118,32.973-17.809 c8.371,13.303,23.211,32.375,40.542,34.654c4.386,0.572,10.155,0.247,16.29-3.081c1.152,3.473,2.432,7.979,3.661,13.645 c0.853,3.925,4.326,6.724,8.337,6.724c43.785,0,62.942-23.91,71.074-41.19c15.275,19.789,45.363,52.77,76.271,52.77 c0.538,0,1.084-0.009,1.613-0.026c12.485-0.476,23.433-6.224,32.701-17.118c16.818,40.19,37.371,74.956,61.357,89.644 c1.391,0.853,2.927,1.254,4.446,1.254c2.876,0,5.675-1.451,7.287-4.079C513.215,469.772,511.944,464.524,507.924,462.058z M124.001,226.011l-13.073,16.333l-14.575-18.219c-7.187-8.986-16.181-16.209-26.385-21.268 c11.402-17.862,24.81-40.127,40.55-67.896c3.402-5.998,6.863-12.166,10.382-18.502c5.944,19.79,16.829,51.434,33.923,85.255 C142.86,207.327,132.333,215.592,124.001,226.011z M378.291,224.496c-24.593,9.225-46.285,24.457-63.258,44.339l-5.026-5.026 c-15.71-15.71-34.227-27.631-55.031-35.439l-14.182-5.316c-15.019-5.632-28.809-13.764-41.003-24.175l-25.421-21.7 c0.216-0.045,0.423-0.097,0.638-0.143c0.302-0.065,0.599-0.134,0.898-0.202c0.712-0.162,1.415-0.331,2.108-0.508 c0.306-0.078,0.612-0.156,0.915-0.237c0.715-0.191,1.418-0.391,2.114-0.598c0.243-0.072,0.489-0.141,0.729-0.214 c0.931-0.286,1.847-0.582,2.743-0.894c0.024-0.008,0.046-0.017,0.07-0.026c0.857-0.299,1.696-0.613,2.522-0.935 c0.274-0.107,0.54-0.218,0.811-0.328c0.574-0.232,1.142-0.467,1.701-0.709c0.304-0.132,0.604-0.265,0.903-0.4 c0.523-0.235,1.038-0.476,1.548-0.72c0.289-0.138,0.579-0.276,0.864-0.417c0.551-0.274,1.092-0.554,1.627-0.838 c0.218-0.115,0.442-0.227,0.657-0.344c0.726-0.394,1.437-0.797,2.134-1.209c0.22-0.13,0.431-0.264,0.648-0.396 c0.485-0.294,0.967-0.589,1.438-0.891c0.275-0.176,0.544-0.355,0.814-0.534c0.405-0.268,0.806-0.538,1.201-0.811 c0.271-0.188,0.541-0.376,0.807-0.567c0.393-0.281,0.779-0.566,1.162-0.852c0.243-0.182,0.489-0.363,0.728-0.546 c0.471-0.363,0.931-0.73,1.386-1.1c0.134-0.109,0.273-0.215,0.405-0.324c0.57-0.47,1.124-0.947,1.668-1.428 c0.203-0.179,0.398-0.361,0.598-0.541c0.354-0.32,0.705-0.641,1.048-0.966c0.211-0.2,0.419-0.4,0.626-0.601 c0.328-0.318,0.651-0.638,0.969-0.959c0.191-0.193,0.383-0.386,0.571-0.581c0.351-0.363,0.693-0.728,1.032-1.094 c0.139-0.15,0.281-0.299,0.418-0.45c0.475-0.523,0.938-1.048,1.388-1.575c0.044-0.051,0.085-0.103,0.128-0.154 c0.407-0.481,0.805-0.962,1.192-1.445c0.116-0.145,0.228-0.289,0.342-0.434c0.316-0.401,0.627-0.801,0.93-1.203 c0.113-0.149,0.224-0.298,0.335-0.448c0.313-0.422,0.619-0.844,0.918-1.266c0.08-0.113,0.162-0.227,0.241-0.34 c1.165-1.664,2.22-3.324,3.177-4.958c0.03-0.052,0.06-0.103,0.09-0.155c0.295-0.507,0.58-1.01,0.856-1.511 c0.024-0.044,0.048-0.088,0.072-0.131c0.598-1.091,1.159-2.169,1.672-3.223c14.925,21.641,44.338,58.058,75.048,57.298 c1.277-0.015,2.535-0.106,3.781-0.241c7.866-0.848,15.101-4.087,21.654-9.7c2.624-2.246,5.142-4.865,7.546-7.867 c5.494,8.73,13.772,19.943,23.712,27.264c5.208,3.837,10.872,6.605,16.831,7.388c0.486,0.063,0.991,0.115,1.511,0.153 c3.286,0.247,7.194-0.087,11.371-1.687c0.348-0.133,0.693-0.252,1.044-0.403c0.556,2.778,1.205,5.952,1.935,9.439 L378.291,224.496z"/> <path d="M506.593,166.301c-27.392-10.769-45.79-39.885-45.79-72.431c0-32.546,18.398-61.662,45.79-72.431 c3.268-1.289,5.41-4.437,5.41-7.945s-2.142-6.656-5.41-7.945c-9.353-3.678-19.021-5.547-28.723-5.547 c-47.053,0-85.333,42.112-85.333,93.867c0,51.755,38.281,93.867,85.333,93.867c9.702,0,19.371-1.869,28.723-5.547 c3.268-1.289,5.41-4.437,5.41-7.945S509.862,167.59,506.593,166.301z M409.603,93.87c0-42.342,30.626-76.8,68.267-76.8 c0.734,0,1.468,0.009,2.202,0.043c-22.349,17.289-36.335,45.79-36.335,76.757s13.986,59.469,36.335,76.757 C441.663,172.189,409.603,137.041,409.603,93.87z"/> <path d="M273.07,128.004h8.533v8.533c0,4.71,3.823,8.533,8.533,8.533s8.533-3.823,8.533-8.533v-8.533h8.533 c4.71,0,8.533-3.823,8.533-8.533s-3.823-8.533-8.533-8.533h-8.533v-8.533c0-4.71-3.823-8.533-8.533-8.533 s-8.533,3.823-8.533,8.533v8.533h-8.533c-4.71,0-8.533,3.823-8.533,8.533S268.36,128.004,273.07,128.004z"/> </g> </g> </g> </g>
</svg>